<svg xmlns="http://www.w3.org/2000/svg" viewBox="0 0 953.17 1024"><g id="ae4eab67-c54d-453c-96b1-df6bff873d79" data-name="Capa 2"><g id="a7fea52b-56b8-4992-a89e-30c77d330f67" data-name="Capa 1"><path d="M357.76,869.61c-12.68,3.73-59.14,18.38-115.27,8.76C229,876.05,181.58,867.93,171,840.62a148.62,148.62,0,0,1-9.44-41.12c-.26-5.08-.42-14.66-2-14.83-1.79-.18-1.39,11.68-7.42,14.83-9.36,4.89-34-11.38-37.07-31-1.67-10.62,4.47-12.74,2-24.27-2.17-10.2-7.5-11-15.5-27.63-6.51-13.48-4-14.93-8.09-18.88-10.94-10.43-26.29,2-41.8-7.41-9.67-5.89-13.18-16.51-17.52-29.66-3.68-11.13-7.61-23-2.7-34.38,5.25-12.13,15.61-12,16.18-20.23.75-10.76-17-13.1-23.6-29.66-4.21-10.63-1.22-20.62,4.72-40.44,8.81-29.37,16.77-30.41,16.18-42.47-1.18-24-33-23.75-42.47-51.91-9.5-28.34,9.48-68.34,31-89,7.19-6.89,12.35-9.4,16.85-18.2,9.17-17.89-.78-29.74,7.42-49.88C63.27,271,73.16,263,77.34,259.55c19.74-16.1,34.37-9.85,40.44-21.57,5.59-10.81-5.88-17.94-5.39-43.82.19-9.8.4-21.4,7.42-31,9.08-12.45,19.88-8.33,44.49-19.55,25.51-11.63,43-29.32,49.88-36.4,13.93-14.32,13.1-18.51,25.62-28.31,10.94-8.58,18.56-10.84,39.09-19.55,46.8-19.86,40-22,54.61-24.94,31.33-6.33,43.05,7.51,64.71-4,14.4-7.68,11.4-15,24.94-23.59s29.93-9.86,86.29,1.35c61.44,12.21,53.77,16,78.19,17.52,41.53,2.55,63.49-8.49,78.87,6.74C677.68,43.45,669.81,53,680,64.73c23.19,26.81,79.69-4.69,99.1,19.55,9.54,11.92-2.8,21.18,6.74,48.54,6.76,19.4,14.31,18.59,33.7,49.2s15.26,36.87,28.31,47.19c20.65,16.33,35.9,4.65,52.58,19.55,16.38,14.62,16.92,39.48,17.53,67.41.88,40.55-10.51,48.3-2.7,73.48,6,19.48,13.25,16.07,25,43.14,5.83,13.5,16,37,12.13,64.71-3.07,22.13-11.43,20.9-14.83,43.15-5.24,34.28,12.92,48.24,2.7,63.36-11,16.2-36.19,6.73-45.84,24.27-5,9.09.56,13.85,0,34.38-.28,10.3-1,36.71-16.18,54.6-15,17.71-28.55,8.58-47.86,27.64-15.95,15.73-9.38,24.58-25.62,41.12-17.22,17.55-30.23,13.32-47.19,27.64-22.4,18.91-17.21,41.1-27.63,58C692.71,931.75,520.82,821.6,357.76,869.61Z" style="fill:#474646"/><path d="M733.24,635.69c-10.18,36.75-8.83,63.49-5.4,81.57,1.36,7.16,2.75,11.4,3.37,20.22.71,10-.05,19.32-10.78,62.69-4.58,18.5-7.42,28.87-8.76,33.71-3.11,11.17-5.92,20.59-8.09,27.64" style="fill:#363635"/></g><g id="afb325af-56b1-4e1a-8cf1-930ca7ead9ff" data-name="Capa 3"><path d="M388.77,293.67c-22.3,11.61-87.68,46.78-120.66,120-11.83,26.27-14.85,47.85-20.9,91a792.65,792.65,0,0,0-5.39,167.17C249.81,784,253.81,840,285,891.6,303.33,922,365.3,1010.78,476.4,1023.05c7.57.84,121.83,11.68,193.47-67.41,32.06-35.39,40.25-72.13,56.63-145.61,6.6-29.63,21.46-104.94,16.17-213-4.72-96.59-8.15-166.77-53.92-238.63-17.73-27.83-40.16-63-84.27-84.94C514,228.52,414.27,280.41,388.77,293.67Z" style="fill:#ababaa"/></g><g id="a484db2f-0bf2-4907-8bed-380df3906c79" data-name="Capa 9"><path d="M704.92,866.91c-4.18-13.6-1.46-25.61.68-35,3.45-15.24,7.11-15.17,12.13-32.36,4.74-16.23,2.36-19.31,6.74-38.42,4.59-20,7.52-18,11.46-35.06,1.82-7.86,6.53-29,2.7-54.6-2.91-19.45-8.06-23.45-5.39-35.73,2.59-11.93,11.45-26.6,21.57-27,13.48-.48,28.41,24.45,29.66,47.19.95,17.26-6.76,19.26-12.14,53.25-2.45,15.52-1.09,16.65-4,35.05-1.63,10.17-4.12,25.71-9.44,41.8-10.74,32.5-21,30.82-27.64,56-7.63,28.8,1,49.18-5.39,51.23C720.23,895,709.19,880.78,704.92,866.91Z" style="fill:#4c4c4b"/><path d="M287.66,883.09c-1.3,7.66-20.54,14.59-31.69,8.09-8.21-4.79-7.61-14.31-12.8-31-9.3-29.9-20.1-28-24.95-47.86-7.85-32.23,18.95-43.83,10.79-75.5-5.62-21.82-19.74-21.75-20.9-41.8C207,675.6,220,671.36,222.94,645.81s-7.63-41.74-3.37-43.82c4.58-2.24,22.49,13.71,28.31,35.73,7,26.42-10.48,34.85-4.71,64,4.5,22.8,16.65,25.2,15.5,45.16-.95,16.5-9.64,21.42-6.74,35.05,3,14.28,13.42,12.89,19.55,27.64,9.23,22.23-9,38.1,2,56.63C279.55,876.36,288.58,877.61,287.66,883.09Z" style="fill:#4c4c4b"/><path d="M258.67,475.93c6.69-12.92,5.32-17.95,10.79-33,3-8.33,6.05-13.87,12.13-24.94,8.4-15.3,12.59-22.95,19.55-30.33,9.6-10.19,12.62-8.25,26.29-21.58,8.63-8.41,9-10.71,16.18-17.52,9.85-9.33,19.19-14.28,27.64-18.88,14.68-8,17.51-7.22,37.07-16.18,20.88-9.55,18.73-10.92,34.38-17.52,9-3.81,24-10,44.49-12.81,10.73-1.47,22.05-3,36.4-.67,22,3.59,24.68,12,49.89,16.85,16.6,3.18,16.64-.26,29,3.37C621.7,308.34,634,320.34,642.91,329c7.31,7.12,17.77,17.3,25.61,33.7,6.85,14.34,7,23.55,17.53,35.06,7.42,8.1,8.92,5.23,14.83,12.13,10.63,12.41,5.78,21.65,16.18,51.23,2.63,7.5,5,12.64,8.09,19.55,3.92,8.67,5.89,13,6.94,13.1,7.24.63,31.39-63.53,23.39-118.26-13.05-89.25-109.61-139.72-140.21-155.72-110.7-57.86-280.62-70.3-337.72,6.75-33,44.45.38,80-40.45,174.59,0,0-13.82,32-17.53,94.37-.72,12.11-1.09,30,10.11,38.43,5.85,4.39,15.18,6.46,20.23,2.69,6.12-4.57,5.09-17.06,4-29.66-.64-7.76-2-12.65,0-20.22C255.15,482.1,256.77,479.6,258.67,475.93Z" style="fill:#4c4c4b"/></g><g id="fab1baf1-4818-4a3a-bdbd-d7f28808c42d" data-name="Capa 10"><path d="M146.77,298c-15.49,6.75-25.59,29.08-45.16,73.48-7.94,18-9.86,24.14-9.44,32.35,1,19.16,13.23,22.81,13.48,38.43C106,464.5,81.22,468.43,80,490.76,78.89,512.25,101.38,517,100.93,540c-.44,22.53-22.31,28.19-19.55,46.51,2.9,19.23,28.44,22.68,28.31,39.78-.09,13.89-17,16.71-16.85,29,.23,20.27,46.41,25.21,49.89,50.56,1.87,13.69-10.7,18.78-6.75,31,4.83,14.93,28.44,22.34,46.52,20.9,7.42-.6,21.59-1.72,27.64-11.46C216.47,736,208.53,725,196.65,689c-11.16-33.9-6.58-31.54-13.48-45.84-16.47-34.14-36.94-35.93-37.07-54.6-.16-22.48,29.49-26.23,31.68-51.23,2.24-25.51-27.6-33.23-25.62-60,1.74-23.43,25.48-29.41,23.6-51.91-1.51-18-17.35-22.26-14.83-33.7,3.72-16.93,38.88-9.76,60.67-35.05,17.16-19.93,4.68-35.23,20.89-49.89,20.85-18.85,46.71,1.72,76.18-18.2,19.91-13.46,14.09-26.9,31-34.38,28.89-12.77,53.94,22.85,83.59,10.79,19.9-8.09,13.81-26.23,35.06-37.08,25.63-13.08,41.23,9.9,87.63,6.07,35.59-2.93,45.17-18,60.67-9.44,20.84,11.52,10,42.36,33,58,20.46,13.85,39.79-3.13,55.27,10.78,16.9,15.18-1.44,39.61,15.51,65.39,15.88,24.15,40.44,15.6,51.9,38.42,10.5,20.91-8,32.33-.67,64,7,30.43,26.67,31.43,28.31,56.63,1.74,26.62-19.79,31.63-18.87,58.64,1,30.57,29,35.13,27.64,62-1.17,22.85-21.72,26.38-30.34,62-1.82,7.53-7.87,32.52,1.35,38.42,11.49,7.35,48.68-13.7,57.3-43.82,8.16-28.53-15.36-44.11-4.72-67.41,10.35-22.65,37.47-18.55,43.14-39.09,5.13-18.59-15.92-26-17.52-53.26-2-33.54,28.61-44.34,22.91-69.43-5.89-25.95-41.34-26.31-44.49-50.56-2.92-22.55,26.49-31.93,23.6-53.92-2.08-15.82-18.29-18.5-58-48.54-27.39-20.73-43.92-33.25-58-54.6-20.12-30.58-9.53-40.33-27.64-62-23-27.52-43.21-15.61-75.49-44.49-30.47-27.25-24.26-48.4-46.52-55.95-24.54-8.33-34.72,16.49-84.93,25.62-42.36,7.7-52.73-6.76-82.92,6.74-16,7.15-26.85,18-48.53,39.77-35.07,35.16-38.75,51.63-53.93,51.9-22.59.41-26.89-35.81-51.91-37.75-25.73-2-55,33.69-68.08,60.67-10.3,21.28-11.24,38.69-28.31,48.54C163.9,298.07,159.94,292.23,146.77,298Z" style="fill:#4f4f4e"/></g><g id="e9f419af-5d14-4405-a67a-b05fed128b4e" data-name="Capa 5"><path d="M220.92,552.78c-1.58,4.31-.16,8.71,2.7,17.53,5.12,15.83,12.42,19.21,19.55,35.05,4.06,9,2.43,9.59,6.74,22.24,0,0,6.8,20,18.2,37.08,23.75,35.57,130,46.78,171.22,2.7,11.6-12.39,26-27.8,30.33-47.86a100.1,100.1,0,0,1,9.44-25.62c6.55-12.33,11.22-14.77,12.81-15.5,8.09-3.75,18.27-1.23,24.94,3.37,11.22,7.72,9.63,19.27,17.53,35.72a101.5,101.5,0,0,0,28.31,33c34.41,26.06,86.32,9.62,129.43-4,28.08-8.9,42.27-13.62,49.21-27,8.37-16.12,2.31-35.78,16.85-54.61a48.58,48.58,0,0,0,7.41-12.13c1.23-3,6.31-15.21,2-27-3.38-9.25-11.09-14.21-14.16-16.18-23.5-15.1-116.23-29.87-192.79,20.89-12.56,8.33-26.69,19.75-49.21,22.25-18.46,2.05-29-3.4-57.3-10.11a520.79,520.79,0,0,0-68.76-10.79c-18.08-1.46-17,.11-97.07,5.4C247,540,225.25,541,220.92,552.78Z" style="fill:#1d1d1b"/></g><g id="a1d107ea-b4a5-4e63-bd1f-5f6328982340" data-name="Capa 6"><path d="M255.3,561.81c-9.5,12.88-2.06,36.45,12.81,83.59a29.53,29.53,0,0,0,4,8.76c9,12.81,27.12,14,52.58,14.83,73.19,2.29,87.4-2.8,97.07-7.41,8.06-3.84,16.88-8.16,24.94-17.53,15-17.42,15.27-38.3,15.51-55.95.16-12.34.16-25.79-8.76-33-4.83-3.91-10.38-4.47-12.81-4.72-69.08-7-53.17-9-87-8.76-39.06.3-55.75,2.95-71.46,7.41C267.49,553.2,260,555.43,255.3,561.81Z" style="fill:#fff"/><path d="M552.19,547.94c2.45-3,5.8-5.88,48.79-15.29,41.12-9,22.93-3.06,73.19-12.1,7.42-1.34,23.75-4.33,41.28,1.27,7.5,2.4,12.79,5.59,15.64,10.83,3.27,6,2,12.31,1.25,17.21-5.05,31.4,3.31,35.22-3.75,54.79-2.31,6.39-6.38,17.67-16.27,26.12-17.61,15.06-34.63,4.88-92.57,7-30,1.1-33.69,4.13-43.16-.64C547.72,622.61,534.08,570.29,552.19,547.94Z" style="fill:#fff"/></g><g id="afb24211-cd6d-40e3-9e44-d46deb66b37b" data-name="Capa 2"><path d="M442.7,674.79c-15.6,22.88-24.63,25.92-28.31,41.12-1.05,4.32-4.43,18.26,3.37,27,6.92,7.73,20.27,8.65,29.66,5.39,13.19-4.59,15.75-16.48,25.61-15.51,4.5.45,8.86,3.4,12.81,6.07,6.49,4.39,6.45,6.69,10.11,8.09,6.75,2.58,10.69-3.79,22.25-6.74,6.1-1.56,14.85-.59,32.36,1.35,15,1.66,16.2,2.7,20.22,1.35,10.56-3.56,17.06-15.79,18.87-25.62,1-5.61,1.54-15.76-12.8-40.45-20.5-35.27-31.57-31.83-41.12-56.62-6.36-16.48-5-27.12-16.18-36.4-2.64-2.19-12.71-9.89-23.6-7.42-10.46,2.38-15.87,12.84-22.24,25.62-9.62,19.28-6.57,26.08-16.18,47.19A162.91,162.91,0,0,1,442.7,674.79Z" style="fill:#b0b0af"/><path d="M457.53,731.42c-9.72-.38-19.41-1.13-20.22-4.72s6.74-10.13,14.83-10.79c11.55-.94,14.31,11.11,32.35,17.53,4.83,1.71,18.42,6.55,29.66.67,2.72-1.42,1.88-1.67,13.82-11,10-7.8,12.32-9,14.5-9.87,3-1.22,12.27-5,18.87-.68.69.45,4.87,3.15,4.72,6.07C565.46,730.47,494.06,732.84,457.53,731.42Z" style="fill:#a7a6a6"/></g></g></svg>